<?xml version="1.0" encoding="utf-8"?>
<!-- Generator: Adobe Illustrator 19.1.0, SVG Export Plug-In . SVG Version: 6.00 Build 0)  -->
<svg version="1.1" id="Слой_1" xmlns="http://www.w3.org/2000/svg" xmlns:xlink="http://www.w3.org/1999/xlink" x="0px" y="0px"
	 viewBox="0 0 125 35" style="enable-background:new 0 0 125 35;" xml:space="preserve">
<style type="text/css">
	.st0{fill:#FFFFFF;}
</style>
<g>
	<path class="st0" d="M69.4108505,13.2358398c-0.2894897-0.1480103-0.6200562-0.2491455-0.9900513-0.3034668
		c-0.3717041-0.0534058-0.7450562-0.0805664-1.1217041-0.0805664c-0.2828369,0-0.4606934,0.0065918-0.723877,0.0197144
		c-0.2631226,0.0139771-0.5413208,0.0411377-0.5413208,0.0814209v4.2037354c0,0.0131226,0.0463257,0.0270996,0.1680298,0.0402832
		s0.2007141,0.0238647,0.3356018,0.0303955c0.1348877,0.0065918,0.2360382,0.0131836,0.3512115,0.0197754
		c0.1134644,0.0073853,0.1920242,0.0098267,0.261116,0.0098267c0.3897705,0,0.775238-0.0263062,1.1650085-0.0805664
		c0.3914185-0.0534668,0.7354889-0.1677246,1.0381012-0.34375c0.3026123-0.1743164,0.5478287-0.4135742,0.7369766-0.717041
		c0.187439-0.3034058,0.2820969-0.7105103,0.2820969-1.2227783c0-0.4309082-0.08918-0.7779541-0.2634964-1.0410767
		C69.932579,13.5894165,69.7002792,13.3838501,69.4108505,13.2358398z"/>
	<path class="st0" d="M81.9512558,18.288208c-0.2828369-0.1480713-0.6068726-0.2459106-0.9703369-0.2927856
		c-0.3634644-0.0476685-0.7416992-0.0715332-1.1315308-0.0715332c-0.1085205,0-0.2335205,0.0073853-0.374939,0.0205688
		c-0.1414795,0.0139771-0.2861938,0.0270996-0.4342041,0.0402832c-0.1480103,0.0139771-0.4530334,0.0304565-0.5747375,0.0509644
		c-0.1200562,0.0197754-0.4316101,0.0370483-0.4316101,0.0501709v3.9611206c1,0.0263672,0.5434875,0.0493774,0.8066101,0.0707397
		c0.2614746,0.0197144,0.6261444,0.0296021,0.9238129,0.0296021c0.4029541,0,0.8336105-0.0328979,1.2036667-0.1003418
		c0.3700562-0.0673828,0.7152939-0.1858521,0.9916-0.3535767c0.2763062-0.1693726,0.5056915-0.3914185,0.6668854-0.6677246
		c0.1627808-0.2763062,0.2487259-0.6233521,0.2487259-1.0410767c0-0.4440308-0.0812683-0.8001099-0.2506409-1.0698242
		C82.4568329,18.6450806,82.2341537,18.4362183,81.9512558,18.288208z"/>
	<path class="st0" d="M123.3199692,15.9851685L110.8901596,1.0787354C110.3201523,0.3952026,109.4760971,0,108.5860825,0H0.0338936
		v35h108.5991211c0.862915,0,1.684082-0.3716431,2.2536621-1.0198975l12.3829346-14.0935669
		C124.2452621,18.776123,124.2666245,17.1204224,123.3199692,15.9851685z M22.0338936,25h-3v-8.227356L19.2417183,15H19.140583
		l-1.0303345,2.0190735L12.3103828,25h-2.2764893V10h3v8.0455933L12.8761177,20h0.1209106l1.0911865-2.1304932L19.828083,10
		h2.2058105V25z M36.0338936,25h-3v-6h-5v6h-3V10h3v6h5v-6h3V25z M50.0338936,13h-5v12h-3V13h-4v-3h12V13z M61.0338936,25h-10V10h9
		v3h-6v3h6v3h-6v3h7V25z M73.0389633,17.227356c-0.3371582,0.6257935-0.7861938,1.1348267-1.3453369,1.5254517
		c-0.5592041,0.3914185-1.1956787,0.7337952-1.9094238,0.9163513C69.0703964,19.8517151,68.3368759,20,67.5819931,20
		c-0.0674438,0-0.1825562,0-0.34375,0c-0.1611328,0-0.3338623-0.0611267-0.5147705-0.0677185
		c-0.1825562-0.0065918-0.2584229-0.0453949-0.4212646-0.0601654c-0.1611328-0.0131836-0.2683105-0.0552216-0.2683105-0.0684052V25
		h-3.0000038V10.5682373c0-0.1077271,1.1898537-0.1924438,1.9299049-0.2525024
		c0.7417603-0.0608521,1.4365387-0.0912476,2.178299-0.0912476c0.7548828,0,1.493721,0.0575562,2.2601395,0.171875
		c0.7680664,0.1142578,1.4474792,0.343689,2.0609436,0.687439c0.6134644,0.3428955,1.1093903,0.8215332,1.4991608,1.4341431
		c0.3914185,0.6134644,0.5843277,1.4251099,0.5843277,2.43573C73.546669,15.8425903,73.3744125,16.600769,73.0389633,17.227356z
		 M84.3853378,23.5419922c-1.1117554,0.8223267-2.6708984,1.2335205-4.6773682,1.2335205
		c-0.2022705,0-0.4752808-0.0032959-0.8190308-0.0098877s-0.717041-0.0246582-1.1216431-0.0509644
		c-0.4046021-0.0263672-0.9900513-0.0608521-1.4077759-0.1003418c-0.4177856-0.0411377-0.3256226-0.1019897-1.3256226-0.1825562V10
		h3v5.4585571c0-0.0131226,0.3510437-0.0303955,0.5122375-0.0501709c0.1627808-0.0205078,0.4255219-0.0369873,0.6212006-0.0509644
		c0.1957397-0.0131836,0.4405441-0.0263062,0.6494064-0.0402832c0.2088623-0.0131836,0.4143295-0.0197754,0.5771713-0.0197754
		c0.7269287,0,1.4414825,0.0674438,2.1223297,0.2014771c0.6792603,0.1348877,1.2848587,0.3774414,1.8029251,0.7277832
		c0.5197144,0.3502808,0.940094,0.8223267,1.2558899,1.4143677c0.3173828,0.59375,0.4766083,1.3412476,0.4766083,2.2433472
		C86.0516663,21.5009766,85.4971542,22.7196655,84.3853378,23.5419922z M97.0338974,25h-9V10h9v3h-6v3h5v3h-5v3h6V25z
		 M109.4760361,17.227356c-0.3370972,0.6257935-0.7844849,1.1348267-1.3436279,1.5254517
		c-0.5592041,0.3914185-1.1956787,0.7337952-1.9094238,0.9163513C105.5075302,19.8517151,104.7740097,20,104.0191269,20
		c-0.0674438,0-0.1809082,0-0.34375,0c-0.1611328,0-0.3338623-0.0611267-0.5147705-0.0677185
		c-0.1825562-0.0065918-0.4769897-0.0453949-0.6381836-0.0601654c-0.1627808-0.0131836-0.4885254-0.0552216-0.4885254-0.0684052V25
		h-3V10.5682373c1-0.1077271,1.4079895-0.1924438,2.1496887-0.2525024c0.7401123-0.0608521,1.5460358-0.0912476,2.2861481-0.0912476
		c0.7548828,0,1.5484695,0.0575562,2.3165359,0.171875c0.7680664,0.1142578,1.4732056,0.343689,2.0866699,0.687439
		c0.6134644,0.3428955,1.1230774,0.8215332,1.5144958,1.4341431c0.3897705,0.6134644,0.5895233,1.4251099,0.5895233,2.43573
		C109.9769592,15.8425903,109.8131943,16.600769,109.4760361,17.227356z"/>
	<path class="st0" d="M105.8479843,13.2358398c-0.2894897-0.1480103-0.6200562-0.2491455-0.9901123-0.3034668
		c-0.3699951-0.0534058-0.7449951-0.0805664-1.1216431-0.0805664c-0.2828369,0-0.6792603,0.0065918-0.9424438,0.0197144
		c-0.2614746,0.0139771-0.7598877,0.0411377-0.7598877,0.0814209v4.2037354c0,0.0131226,0.2648926,0.0270996,0.3865967,0.0402832
		s0.3116455,0.0238647,0.4465332,0.0303955c0.1332397,0.0065918,0.289032,0.0131836,0.4042053,0.0197754
		c0.1134644,0.0073853,0.220993,0.0098267,0.2884369,0.0098267c0.3897705,0,0.7889023-0.0263062,1.1786728-0.0805664
		c0.3914185-0.0534668,0.7423172-0.1677246,1.0449295-0.34375c0.3042603-0.1743164,0.5512466-0.4135742,0.7403946-0.717041
		c0.187439-0.3034058,0.2837982-0.7105103,0.2837982-1.2227783c0-0.4309082-0.0883255-0.7779541-0.2626419-1.0410767
		C106.3705063,13.5894165,106.137413,13.3838501,105.8479843,13.2358398z"/>
</g>
</svg>
