<?xml version="1.0" encoding="utf-8"?>
<!-- Generator: Adobe Illustrator 19.1.0, SVG Export Plug-In . SVG Version: 6.00 Build 0)  -->
<svg version="1.1" id="Слой_1" xmlns="http://www.w3.org/2000/svg" xmlns:xlink="http://www.w3.org/1999/xlink" x="0px" y="0px"
	 viewBox="0 0 125 35" style="enable-background:new 0 0 125 35;" xml:space="preserve">
<style type="text/css">
	.st0{fill:#FFFFFF;}
</style>
<g>
	<path class="st0" d="M19.0805645,16.7726555l0.1611748-1.799243h-0.1011448l-1.0303707,1.8189783L12.31038,24.5732117h-2.2235613
		V10.4267893h2.9916105v7.6188211l-0.2022915,1.8798313h0.120882l1.0912228-1.8798313l5.7398138-7.6188211h2.2432976v14.1464224
		h-2.9907894V16.7726555z"/>
	<path class="st0" d="M33.3478699,18.7330742h-5.6584053v5.8401375h-2.9916115V10.4267893h2.9916115v5.6789618h5.6584053v-5.6789618
		h2.9907875v14.1464224h-2.9907875V18.7330742z"/>
	<path class="st0" d="M49.8592911,13.0541105h-4.4865952v11.5191011h-2.9907875V13.0541105h-4.4865952v-2.6273212h11.9639778
		V13.0541105z"/>
	<path class="st0" d="M51.4143028,10.4267893h9.1146278v2.6273212h-6.1230164v3.0713758h5.5572586v2.6273232h-5.5572586v3.1922569
		h6.2241631v2.6281452h-9.2157745V10.4267893z"/>
	<path class="st0" d="M62.8528175,10.5682287c0.6068726-0.1077242,1.2803535-0.1924238,2.020443-0.2524538
		c0.7417374-0.0608511,1.4818268-0.0912771,2.2235641-0.0912771c0.7548904,0,1.5163651,0.0575619,2.2827682,0.1718655
		c0.7680511,0.1143026,1.4588013,0.3437309,2.072258,0.6874619c0.6134491,0.3429089,1.1150665,0.8215008,1.5048447,1.4341316
		c0.3914261,0.6134529,0.5871429,1.4250851,0.5871429,2.4357204c0,0.8889313-0.1694031,1.6471128-0.5049057,2.2737226
		c-0.3371506,0.6257877-0.7861404,1.1348057-1.3453217,1.5254097c-0.5591812,0.3914261-1.1956558,0.6759491-1.9094315,0.8585052
		c-0.7137756,0.1825542-1.4472885,0.2730103-2.2021866,0.2730103c-0.0674286,0-0.1825562,0-0.3437271,0
		c-0.1611786,0-0.3338623-0.0032883-0.5147781-0.0098667c-0.1825562-0.0065784-0.3535995-0.0164471-0.5164185-0.0312481
		c-0.161171-0.0131588-0.2828751-0.0263157-0.3634644-0.0394726v4.769474h-2.9907875V10.5682287z M67.299118,12.851819
		c-0.2828827,0-0.5558929,0.0065794-0.8190384,0.0197363c-0.2631378,0.013979-0.475296,0.0411158-0.6364746,0.0814095v4.2037163
		c0.0542755,0.0131569,0.1414413,0.0271358,0.2631454,0.0402927s0.2483368,0.0238476,0.3832016,0.030426
		c0.1348572,0.0065784,0.2598495,0.0131569,0.3749771,0.0197353c0.1134796,0.0074005,0.2039337,0.0098686,0.2730103,0.0098686
		c0.3897858,0,0.7812119-0.0263138,1.17099-0.0805874c0.3914261-0.0534515,0.7384491-0.1677551,1.0410614-0.3437309
		c0.3026123-0.1743336,0.5493088-0.4136295,0.7384491-0.7170658c0.1874847-0.3034372,0.2828751-0.7104874,0.2828751-1.2227945
		c0-0.4308977-0.0888138-0.7779179-0.2631454-1.0410614c-0.175972-0.2623205-0.4078674-0.4679012-0.6973267-0.6159191
		c-0.2894592-0.1480188-0.6200333-0.2491646-0.9900742-0.3034372C68.0490723,12.8789558,67.6757431,12.851819,67.299118,12.851819z"
		/>
	<path class="st0" d="M75.3825531,10.4267893h2.9916077v5.0317936c0.0657883-0.0131569,0.1809158-0.030426,0.3420868-0.0501614
		c0.1628189-0.0205584,0.3404465-0.0370045,0.5361557-0.0509844c0.1957169-0.0131569,0.3980026-0.0263138,0.6068726-0.0402937
		c0.2088699-0.0131569,0.393074-0.0197353,0.5558929-0.0197353c0.7269363,0,1.4308395,0.0674305,2.1117249,0.2014685
		c0.6792374,0.134861,1.2795334,0.3774471,1.7975998,0.7277565c0.5197067,0.3503094,0.9374466,0.8223228,1.2532196,1.4143944
		c0.3174133,0.5937176,0.4753036,1.3412094,0.4753036,2.2432976c0,1.6166878-0.5558929,2.8353691-1.6676712,3.6576939
		c-1.1117859,0.8223228-2.6709061,1.2334843-4.6773758,1.2334843c-0.2022934,0-0.4753036-0.0032902-0.8190308-0.0098686
		c-0.3437347-0.0065784-0.7170639-0.0246696-1.1216507-0.0509834c-0.4045792-0.0263157-0.8157425-0.0608521-1.2334824-0.1003246
		c-0.4177399-0.0411148-0.8009415-0.1019669-1.1512527-0.1825542V10.4267893z M79.849411,22.1473579
		c0.4029388,0,0.7910767-0.0328922,1.1611176-0.1003227c0.3700485-0.0674305,0.694046-0.1858444,0.9703445-0.3535995
		c0.2762985-0.1693974,0.4950333-0.3914261,0.6562119-0.6677265c0.1628189-0.2763004,0.2434082-0.6233196,0.2434082-1.0410595
		c0-0.4440556-0.0838776-0.8001213-0.253273-1.0698433c-0.1677551-0.269722-0.393074-0.4785919-0.6759491-0.6266098
		c-0.2828827-0.1480179-0.6068802-0.2458744-0.9703445-0.2927475c-0.3634644-0.0476952-0.7417374-0.0715408-1.1315155-0.0715408
		c-0.108551,0-0.2335434,0.0074005-0.3749771,0.0205574c-0.1414413,0.013979-0.286171,0.0271358-0.4341888,0.0402946
		c-0.1480179,0.013979-0.2828827,0.0304241-0.4045868,0.0509834c-0.1200562,0.0197353-0.2088699,0.0370045-0.2614975,0.0501614
		v3.9611301c0.1611786,0.0263138,0.3733368,0.0493393,0.6364822,0.0707188
		C79.2721405,22.1374912,79.5517273,22.1473579,79.849411,22.1473579z"/>
	<path class="st0" d="M87.8506165,10.4267893h9.116272v2.6273212h-6.1246643v3.0713758h5.5589066v2.6273232h-5.5589066v3.1922569
		h6.2249832v2.6281452h-9.2165909V10.4267893z"/>
	<path class="st0" d="M99.2907715,10.5682287c0.6052246-0.1077242,1.2795334-0.1924238,2.0212708-0.2524538
		c0.7400894-0.0608511,1.4818268-0.0912771,2.2219162-0.0912771c0.7548904,0,1.5163651,0.0575619,2.2844086,0.1718655
		c0.7680511,0.1143026,1.4571609,0.3437309,2.07061,0.6874619c0.6134567,0.3429089,1.1150742,0.8215008,1.5065002,1.4341316
		c0.3897781,0.6134529,0.585495,1.4250851,0.585495,2.4357204c0,0.8889313-0.1677551,1.6471128-0.5049133,2.2737226
		c-0.3371506,0.6257877-0.7844925,1.1348057-1.3436737,1.5254097c-0.5591812,0.3914261-1.1956558,0.6759491-1.9094315,0.8585052
		c-0.7154236,0.1825542-1.4489365,0.2730103-2.2038269,0.2730103c-0.0674286,0-0.1809082,0-0.3437271,0
		c-0.1611786,0-0.3338699-0.0032883-0.5147781-0.0098667c-0.1825562-0.0065784-0.3535995-0.0164471-0.5147705-0.0312481
		c-0.1628265-0.0131588-0.2845306-0.0263157-0.3651123-0.0394726v4.769474h-2.9899673V10.5682287z M103.7362442,12.851819
		c-0.2828751,0-0.5558853,0.0065794-0.8190308,0.0197363c-0.2614975,0.013979-0.4736557,0.0411158-0.6364746,0.0814095v4.2037163
		c0.0542679,0.0131569,0.1414337,0.0271358,0.2631378,0.0402927s0.2499924,0.0238476,0.3848495,0.030426
		c0.1332169,0.0065784,0.2582092,0.0131569,0.3733368,0.0197353c0.1134796,0.0074005,0.2055817,0.0098686,0.2730103,0.0098686
		c0.3897781,0,0.7812042-0.0263138,1.17099-0.0805874c0.3914261-0.0534515,0.7384415-0.1677551,1.0410614-0.3437309
		c0.3042526-0.1743336,0.5493088-0.4136295,0.7384415-0.7170658c0.1874924-0.3034372,0.2828827-0.7104874,0.2828827-1.2227945
		c0-0.4308977-0.0888138-0.7779179-0.2631454-1.0410614c-0.1743317-0.2623205-0.4078751-0.4679012-0.6973267-0.6159191
		c-0.2894592-0.1480188-0.6200333-0.2491646-0.9900818-0.3034372
		C104.487854,12.8789558,104.1128693,12.851819,103.7362442,12.851819z"/>
</g>
<path class="st0" d="M109.6056213,3.0750189l10.695488,12.7845163c0.9461594,1.1309586,0.9301453,2.7818336-0.0377655,3.8942299
	l-10.6289139,12.2154846C109.0646667,32.6240616,108.2392273,33,107.3712311,33H2V2l105.3046494,0.000001
	C108.1929703,2.000001,109.035614,2.3936865,109.6056213,3.0750189z M0,0v35h108.6330109
	c0.8629456,0,1.6841049-0.3716011,2.253685-1.0198708l12.3828888-14.0935574
	c0.9756622-1.1104527,0.9970474-2.7661133,0.0503845-3.9013958L110.8901291,1.0787348
	C110.3201447,0.3951822,109.4760742,0,108.5860596,0H0z"/>
</svg>
