<?xml version="1.0" encoding="utf-8"?>
<!-- Generator: Adobe Illustrator 19.1.0, SVG Export Plug-In . SVG Version: 6.00 Build 0)  -->
<svg version="1.1" id="Слой_1" xmlns="http://www.w3.org/2000/svg" xmlns:xlink="http://www.w3.org/1999/xlink" x="0px" y="0px"
	 viewBox="-449 463.0105591 100 75.9894257" style="enable-background:new -449 463.0105591 100 75.9894257;" xml:space="preserve">
<style type="text/css">
	.st0{fill:#51B9A4;}
</style>
<polygon class="st0" points="-449.1040649,504.6791077 -449.1040649,463.0105591 -382.928894,463.0105591 -382.928894,481.6632385 
	-400.8179932,469.2281189 "/>
<polyline class="st0" points="-449.1040649,509.2039795 -400.8179932,473.2076111 -348.8959351,510.8401794 
	-348.8959351,521.3118896 -400.8179932,484.7700806 -449.1040649,520.2210693 "/>
<polygon class="st0" points="-411.5805664,523.0787964 -411.5805664,496.6451111 -400.8179932,488.5731812 
	-351.1138916,523.0787964 "/>
<g>
	<path class="st0" d="M-436.5886536,527.1315918V539h-3.448822v-6.5170898L-444.4777222,539h-3.4612122v-11.8684082h3.4569092
		v6.5656738l4.4635315-6.5656738H-436.5886536z"/>
	<path class="st0" d="M-434.1194153,527.1315918h3.6673584v4.1530762h4.0074463v-4.1530762h3.6835938V539h-3.6835938v-4.8008423
		h-4.0074463V539h-3.6673584V527.1315918z"/>
	<path class="st0" d="M-421.1580811,527.1315918h11.1478882v2.9306641h-3.7402344V539h-3.6673889v-8.9377441h-3.7402649V527.1315918
		z"/>
	<path class="st0" d="M-408.3586121,527.1315918h9.8282471v2.5339966h-6.152771v1.8862915h5.707489v2.4206543h-5.707489v2.3395996
		h6.3309326V539h-10.0064087V527.1315918z"/>
	<path class="st0" d="M-396.393158,527.1315918h6.0961609c1.3277588,0,2.3220825,0.3156738,2.9833374,0.9471436
		c0.6610107,0.6315308,0.9917297,1.5301514,0.9917297,2.6959839c0,1.1981201-0.3603516,2.1345825-1.0808411,2.8091431
		c-0.720459,0.6747437-1.8203125,1.012085-3.2990112,1.012085h-2.007782V539h-3.6835938V527.1315918z M-392.7095642,532.1914673
		h0.8986511c0.7069702,0,1.2035217-0.1227417,1.4895935-0.3683472c0.2860718-0.2455444,0.4291077-0.5599365,0.4291077-0.9432373
		c0-0.3723145-0.1242065-0.6881104-0.372345-0.9471436c-0.2483521-0.2590332-0.715271-0.3886108-1.4006348-0.3886108h-1.0443726
		V532.1914673z"/>
	<path class="st0" d="M-380.7278442,531.7056885h1.9592285c1.7972107,0,3.1302795,0.3170776,3.9992981,0.9512939
		c0.868927,0.6342163,1.3034363,1.6205444,1.3034363,2.9589844c0,1.0956421-0.3980713,1.9336548-1.1941223,2.5136719
		C-375.4561768,538.7098999-376.598938,539-378.088562,539h-6.2985535v-11.8684082h3.6592712V531.7056885z
		 M-380.7278442,536.4497681h1.8782654c1.1495972,0,1.7243347-0.4154663,1.7243347-1.2466431
		c0-0.7286987-0.5747375-1.0929565-1.7243347-1.0929565h-1.8782654V536.4497681z"/>
	<path class="st0" d="M-371.5795898,527.1315918h9.8282776v2.5339966h-6.1528015v1.8862915h5.7075806v2.4206543h-5.7075806
		v2.3395996h6.3309631V539h-10.0064392V527.1315918z"/>
	<path class="st0" d="M-359.6140747,527.1315918h6.0961304c1.3277588,0,2.322113,0.3156738,2.9833374,0.9471436
		c0.6610107,0.6315308,0.9917297,1.5301514,0.9917297,2.6959839c0,1.1981201-0.360321,2.1345825-1.0808105,2.8091431
		c-0.7204895,0.6747437-1.820343,1.012085-3.2990417,1.012085h-2.007782V539h-3.6835632V527.1315918z M-355.9305115,532.1914673
		h0.8986511c0.7069702,0,1.2035522-0.1227417,1.489624-0.3683472c0.2860718-0.2455444,0.4290771-0.5599365,0.4290771-0.9432373
		c0-0.3723145-0.1242065-0.6881104-0.372345-0.9471436c-0.2483215-0.2590332-0.715271-0.3886108-1.4006042-0.3886108h-1.0444031
		V532.1914673z"/>
</g>
</svg>
