<svg id="Слой_1" xmlns="http://www.w3.org/2000/svg" viewBox="-449 463.0105591 100 75.9894257"><style>.st0{fill:#51B9A4;}</style><path class="st0" d="M-449.104 504.68v-41.67h66.175v18.653l-17.888-12.435z"/><path class="st0" d="M-449.104 509.204l48.286-35.996 51.922 37.632v10.472l-51.922-36.542-48.286 35.45"/><path class="st0" d="M-411.58 523.08v-26.435l10.762-8.072 49.704 34.506zM-436.59 527.132V539h-3.447v-6.517l-4.44 6.517h-3.462v-11.868h3.458v6.565l4.464-6.565h3.43zM-434.12 527.132h3.668v4.153h4.007v-4.153h3.684V539h-3.685v-4.8h-4.007v4.8h-3.667v-11.868zM-421.158 527.132h11.148v2.93h-3.74V539h-3.668v-8.938h-3.74v-2.93zM-408.36 527.132h9.83v2.534h-6.153v1.886h5.707v2.42h-5.707v2.34h6.33V539h-10.006v-11.868zM-396.393 527.132h6.096c1.328 0 2.322.315 2.983.947.66.63.992 1.53.992 2.695 0 1.198-.36 2.134-1.08 2.81-.72.674-1.82 1.01-3.3 1.01h-2.008V539h-3.683v-11.868zm3.683 5.06h.9c.706 0 1.203-.123 1.49-.37.285-.244.428-.56.428-.942 0-.372-.124-.688-.373-.947-.248-.26-.715-.39-1.4-.39h-1.045v2.648zM-380.728 531.706h1.96c1.797 0 3.13.317 4 .95.868.635 1.302 1.622 1.302 2.96 0 1.096-.398 1.934-1.194 2.514-.796.58-1.94.87-3.43.87h-6.297v-11.868h3.66v4.574zm0 4.744h1.878c1.15 0 1.725-.416 1.725-1.247 0-.73-.575-1.093-1.725-1.093h-1.878v2.34zM-371.58 527.132h9.83v2.534h-6.154v1.886h5.707v2.42h-5.707v2.34h6.33V539h-10.006v-11.868zM-359.614 527.132h6.096c1.328 0 2.322.315 2.983.947.66.63.992 1.53.992 2.695 0 1.198-.36 2.134-1.08 2.81-.72.674-1.82 1.01-3.3 1.01h-2.008V539h-3.684v-11.868zm3.683 5.06h.898c.707 0 1.204-.123 1.49-.37.286-.244.43-.56.43-.942 0-.372-.125-.688-.374-.947-.248-.26-.715-.39-1.4-.39h-1.045v2.648z"/></svg>